<?xml version="1.0" standalone="no"?>
<!DOCTYPE svg PUBLIC "-//W3C//DTD SVG 20010904//EN"
 "http://www.w3.org/TR/2001/REC-SVG-20010904/DTD/svg10.dtd">
<svg version="1.0" xmlns="http://www.w3.org/2000/svg"
 width="325.000000pt" height="325.000000pt" viewBox="0 0 325.000000 325.000000"
 preserveAspectRatio="xMidYMid meet">
<metadata>
Created by potrace 1.11, written by Peter Selinger 2001-2013
</metadata>
<g transform="translate(0.000000,325.000000) scale(0.100000,-0.100000)"
fill="#000000" stroke="none">
<path d="M0 1625 l0 -1625 1625 0 1625 0 0 1625 0 1625 -1625 0 -1625 0 0
-1625z m1634 693 c32 -6 60 -17 63 -24 4 -12 -6 -92 -23 -176 -5 -27 -8 -28
-69 -28 -103 0 -131 -22 -142 -111 l-6 -49 77 0 c74 0 76 -1 71 -22 -6 -27
-35 -188 -35 -194 0 -2 -35 -4 -78 -4 l-77 0 -44 -252 c-23 -139 -45 -263 -48
-275 -5 -22 -9 -23 -134 -23 -97 0 -129 3 -129 13 0 7 20 128 45 270 25 142
45 260 45 263 0 2 -29 4 -65 4 l-65 0 -24 48 c-27 51 -91 118 -146 151 l-35
21 187 0 187 0 7 38 c23 136 48 208 91 258 74 86 205 121 347 92z m550 0 c32
-6 60 -17 63 -24 4 -12 -6 -92 -23 -176 -5 -27 -8 -28 -69 -28 -103 0 -129
-20 -141 -109 l-7 -51 77 0 c74 0 76 -1 71 -22 -6 -27 -35 -188 -35 -194 0 -2
-35 -4 -78 -4 l-77 0 -44 -252 c-23 -139 -45 -263 -48 -275 -5 -22 -9 -23
-134 -23 -97 0 -129 3 -129 13 0 6 20 128 45 270 25 142 45 260 45 263 0 2
-22 4 -50 4 -33 0 -50 4 -50 13 0 6 7 56 17 110 l16 97 53 0 53 0 11 58 c6 31
15 77 21 101 42 181 205 271 413 229z m696 -217 c0 -5 -7 -45 -15 -88 -8 -43
-15 -79 -15 -80 0 -2 48 -3 106 -3 96 0 105 -2 100 -17 -3 -10 -10 -47 -16
-83 -6 -36 -13 -77 -16 -92 l-6 -28 -103 0 -104 0 -7 -37 c-3 -21 -12 -69 -20
-106 -33 -164 -9 -197 142 -197 51 0 54 -1 49 -22 -6 -30 -35 -189 -35 -195 0
-3 -53 -3 -117 -1 -140 5 -200 26 -262 93 -67 73 -74 133 -37 338 l23 127 -54
0 c-63 0 -61 -4 -37 131 l17 89 57 0 57 0 12 73 c20 118 5 107 152 107 71 0
129 -4 129 -9z m-2085 -190 c82 -38 144 -96 186 -173 33 -61 34 -67 34 -173 0
-104 -2 -114 -32 -176 -41 -83 -121 -159 -210 -202 -65 -30 -74 -32 -188 -32
-109 0 -125 2 -177 27 -76 35 -138 95 -179 170 -33 61 -34 66 -34 178 0 106 2
119 28 173 55 110 168 201 292 234 81 21 205 10 280 -26z m1649 2 c-2 -10 -31
-173 -64 -363 -33 -190 -62 -355 -65 -367 -5 -22 -9 -23 -136 -23 l-131 0 5
28 c2 15 33 188 68 385 l63 357 132 0 c121 0 132 -2 128 -17z"/>
<path d="M555 1700 c-28 -11 -72 -60 -84 -93 -27 -71 -4 -169 47 -203 38 -26
123 -24 159 2 48 36 66 70 71 132 5 73 -15 124 -60 152 -34 21 -97 26 -133 10z"/>
</g>
</svg>
